<svg xmlns:dc="http://purl.org/dc/elements/1.1/" xmlns:cc="http://creativecommons.org/ns#" xmlns:rdf="http://www.w3.org/1999/02/22-rdf-syntax-ns#" xmlns:svg="http://www.w3.org/2000/svg" xmlns="http://www.w3.org/2000/svg" xmlns:sodipodi="http://sodipodi.sourceforge.net/DTD/sodipodi-0.dtd" xmlns:inkscape="http://www.inkscape.org/namespaces/inkscape" version="1.1" width="538.32953" height="210.2625" id="svg2" xml:space="preserve" inkscape:version="0.48.1 " sodipodi:docname="AJAX.svg">
  <sodipodi:namedview pagecolor="#ffffff" bordercolor="#666666" borderopacity="1" objecttolerance="10" gridtolerance="10" guidetolerance="10" inkscape:pageopacity="0" inkscape:pageshadow="2" inkscape:window-width="640" inkscape:window-height="480" id="namedview12" showgrid="false" fit-margin-top="0" fit-margin-left="0" fit-margin-right="0" fit-margin-bottom="0" inkscape:zoom="0.42096774" inkscape:cx="269.16475" inkscape:cy="105.13125" inkscape:window-x="0" inkscape:window-y="0" inkscape:window-maximized="0" inkscape:current-layer="g18"/>
  <metadata id="metadata13">
    <rdf:RDF>
      <cc:Work rdf:about="">
        <dc:format>
          image/svg+xml
        </dc:format>
        <dc:type rdf:resource="http://purl.org/dc/dcmitype/StillImage"/>
        <dc:title/>
      </cc:Work>
    </rdf:RDF>
  </metadata>
  <defs id="defs6">
    <clipPath id="clipPath20">
      <path d="m0 8418.9 5952.75 0L5952.75 0 0 0 0 8418.9z" id="path22" inkscape:connector-curvature="0"/>
    </clipPath>
  </defs>
  <g transform="matrix(1.25,0,0,-1.25,-103.998,631.3225)" id="g12">
    <g transform="scale(0.1,0.1)" id="g14">
      <g id="g16">
        <g clip-path="url(#clipPath20)" id="g18">
          <path d="m2666.73 4717.86c38.13 0 66.57-19.06 95.17-47.37l484.79-484.64c95.16-95.02 199.58-142.68 342.25-142.68l903.15 0-332.73-332.72-846.25 0c-47.51 0-75.81 9.53-104.4 38.12l-484.94 484.64c-95.02 95.31-199.43 142.68-342.11 142.68l-903.15 0 332.73 341.97 855.49 0zm332.87 190.04c-95.02 95.32-209.26 142.68-332.87 142.68l-988.64 0-846.106-836.14 846.106-845.96 475.4 0-674.98 674.69 903.15 0c37.98 0 75.96-9.53 104.56-38.12L2971 3510.87c95.02-95.02 209.11-142.39 332.73-142.39l998.17 0 836.72 845.96-836.72 836.14-484.79 0 674.98-674.69-903.15 0c-38.12 0-66.43 19.06-95.03 37.84" id="path24" inkscape:connector-curvature="0" style="fill-opacity:1;fill-rule:evenodd;fill:#339"/>
        </g>
      </g>
    </g>
  </g>
</svg>
